# xmcd
#
# Track frame offsets: 
#        150
#        11799
#        25685
#        38610
#        50774
#        61936
#        74436
#        84682
#        94893
#        106235
#        118540
#        132422
#        144388
#        156457
#        167800
#        177384
#        188419
#        200930
#
# Disc length: 2815 seconds
#
# Revision: 2
# Processed by: cddbd v1.5.2PL0 Copyright (c) Steve Scherf et al.
# Submitted via: ExactAudioCopy v1.0b3
#
DISCID=020afd12
DTITLE=Various Artist - The Chief Blues Story CD 1
DYEAR=2014
DGENRE=Blues
TTITLE0=Earl Hooker - Calling All Blues 
TTITLE1=Elmore James - It Hurts Me Too 
TTITLE2=Magic Sam - My Love Is Your Love 
TTITLE3=Junior Wells - I'm A Stranger 
TTITLE4=Melvin Simpson - I Love My Baby 
TTITLE5=Lillian Offitt - Oh Mama 
TTITLE6=Bobby and Lucy - It's Nothing 
TTITLE7=Frank Butler - I Can't Believe It 
TTITLE8=Earl Hooker and Junior Wells - Universal Rock 
TTITLE9=Magic Sam - You Dont Have To Work 
TTITLE10=Elmore James - The Twelve Year Old Boy 
TTITLE11=Lillian Offitt - Will My Man Be Home Tonight 
TTITLE12=Junior Wells - Two Headed Woman 
TTITLE13=Magic Sam - Do The Camel Walk 
TTITLE14=Earl Hooker - Rockin' With The Kid 
TTITLE15=Junior Wells - You Sure Look Good To Me 
TTITLE16=Elmore James - Cry For Me Baby 
TTITLE17=Junior Wells - Messing With The Kid 
EXTD=
EXTT0=
EXTT1=
EXTT2=
EXTT3=
EXTT4=
EXTT5=
EXTT6=
EXTT7=
EXTT8=
EXTT9=
EXTT10=
EXTT11=
EXTT12=
EXTT13=
EXTT14=
EXTT15=
EXTT16=
EXTT17=
PLAYORDER=
